<svg id="ikon.svg" xmlns="http://www.w3.org/2000/svg" width="95.219" height="55.625" viewBox="0 0 95.219 55.625">
  <defs>
    <style>
      .cls-1, .cls-2, .cls-3 {
        fill: none;
        stroke: #000;
        fill-rule: evenodd;
      }

      .cls-1 {
        stroke-width: 5px;
      }

      .cls-2 {
        stroke-width: 1px;
      }

      .cls-3 {
        stroke-width: 2px;
      }
    </style>
  </defs>
  <path id="シェイプ_1" data-name="シェイプ 1" class="cls-1" d="M626.769,15.069s-6.963,28.6,2.833,40.154,17.493,10.349,25.149,6.752c7.435-3.494,12.164-11.193,14.168-13.858" transform="translate(-595.5 -11.344)"/>
  <path id="シェイプ_6" data-name="シェイプ 6" class="cls-1" d="M640.505,13.124c8.348,8.239,33.578,32.7,40.1,34.281a7.09,7.09,0,0,0,3.188,0,5.982,5.982,0,0,0,3.9-3.2,5.092,5.092,0,0,0,.355-3.553,4.582,4.582,0,0,0-1.771-2.487,4.27,4.27,0,0,0-4.623-.278,4.189,4.189,0,0,0-1.916,3.566" transform="translate(-595.5 -11.344)"/>
  <path id="シェイプ_2" data-name="シェイプ 2" class="cls-1" d="M626.769,15.425c-4.927,7.423-11.988,14.735-18.927,14.886a7.322,7.322,0,0,1-4.8-1.383c-1.066-.821-2.895-2.811-2.48-5.33a4.573,4.573,0,0,1,.709-1.777,4.351,4.351,0,0,1,7.792,2.488" transform="translate(-595.5 -11.344)"/>
  <path id="シェイプ_2-2" data-name="シェイプ 2" class="cls-1" d="M624.289,29.994c-4.926,7.423-11.988,14.735-18.926,14.886a8.232,8.232,0,0,1-4.806-1.383,5.572,5.572,0,0,1-2.479-3.553,5.209,5.209,0,0,1,.708-3.554,4.351,4.351,0,0,1,7.793,2.487" transform="translate(-595.5 -11.344)"/>
  <path id="シェイプ_8" data-name="シェイプ 8" class="cls-2" d="M627.477,36.034l1.771-.71" transform="translate(-595.5 -11.344)"/>
  <path id="シェイプ_8-2" data-name="シェイプ 8" class="cls-2" d="M628.54,37.456l1.771-.711" transform="translate(-595.5 -11.344)"/>
  <path id="シェイプ_7" data-name="シェイプ 7" class="cls-3" d="M629.394,33.366a5.227,5.227,0,0,0,9.115,2.446" transform="translate(-595.5 -11.344)"/>
</svg>
