<svg id="ikon.svg" xmlns="http://www.w3.org/2000/svg" width="95.219" height="55.625" viewBox="0 0 95.219 55.625">
  <defs>
    <style>
      .cls-1, .cls-2, .cls-3 {
        fill: none;
        stroke: #000;
        fill-rule: evenodd;
      }

      .cls-1 {
        stroke-width: 5px;
      }

      .cls-2 {
        stroke-width: 1px;
      }

      .cls-3 {
        stroke-width: 2px;
      }
    </style>
  </defs>
  <path id="シェイプ_1" data-name="シェイプ 1" class="cls-1" d="M626.769,66.069s-6.964,28.6,2.833,40.153,17.493,10.349,25.149,6.752c7.435-3.494,12.164-11.193,14.168-13.858" transform="translate(-595.5 -62.344)"/>
  <path id="シェイプ_6" data-name="シェイプ 6" class="cls-1" d="M640.5,64.124c8.349,8.238,33.579,32.7,40.1,34.281a7.093,7.093,0,0,0,3.188,0,5.985,5.985,0,0,0,3.9-3.2,5.092,5.092,0,0,0,.355-3.553,4.58,4.58,0,0,0-1.772-2.487,4.268,4.268,0,0,0-4.622-.278,4.186,4.186,0,0,0-1.916,3.566" transform="translate(-595.5 -62.344)"/>
  <path id="シェイプ_2" data-name="シェイプ 2" class="cls-1" d="M626.769,66.425c-4.927,7.423-11.989,14.735-18.927,14.886a7.322,7.322,0,0,1-4.8-1.383c-1.066-.821-2.895-2.811-2.48-5.33a4.575,4.575,0,0,1,.709-1.777,4.351,4.351,0,0,1,7.792,2.488" transform="translate(-595.5 -62.344)"/>
  <path id="シェイプ_2-2" data-name="シェイプ 2" class="cls-1" d="M624.289,80.993c-4.927,7.423-11.988,14.735-18.926,14.886a8.23,8.23,0,0,1-4.806-1.383,5.572,5.572,0,0,1-2.479-3.553,5.209,5.209,0,0,1,.708-3.553,4.351,4.351,0,0,1,7.793,2.487" transform="translate(-595.5 -62.344)"/>
  <path id="シェイプ_8" data-name="シェイプ 8" class="cls-2" d="M627.477,87.034l1.771-.71" transform="translate(-595.5 -62.344)"/>
  <path id="シェイプ_8-2" data-name="シェイプ 8" class="cls-2" d="M628.54,88.456l1.771-.711" transform="translate(-595.5 -62.344)"/>
  <path id="シェイプ_7" data-name="シェイプ 7" class="cls-3" d="M629.394,84.366a5.228,5.228,0,0,0,9.115,2.446" transform="translate(-595.5 -62.344)"/>
</svg>
